<svg xmlns="http://www.w3.org/2000/svg" width="1200" height="630" viewBox="0 0 1200 630">
  <rect width="1200" height="630" fill="#0d1117"/>
  <rect x="20" y="20" width="1160" height="590" rx="16" fill="none" stroke="#21262d" stroke-width="2"/>
  <!-- Logo -->
  <g transform="translate(460, 140)">
    <rect width="80" height="80" rx="18" fill="#0d1117" stroke="#58a6ff" stroke-width="3"/>
    <path d="M18 58V26l12 14 12-14v32" stroke="#c9d1d9" stroke-width="5" stroke-linecap="round" stroke-linejoin="round" fill="none"/>
    <path d="M52 42l10-10v32" stroke="#c9d1d9" stroke-width="5" stroke-linecap="round" stroke-linejoin="round" fill="none"/>
    <circle cx="62" cy="24" r="10" fill="#1f6feb"/>
    <path d="M58 24l3 3 5-5" stroke="#fff" stroke-width="2.5" stroke-linecap="round" stroke-linejoin="round"/>
  </g>
  <!-- Title -->
  <text x="600" y="280" text-anchor="middle" fill="#f0f6fc" font-family="system-ui, -apple-system, sans-serif" font-size="48" font-weight="800">Stale AI Markdown Studio</text>
  <!-- Tagline -->
  <text x="600" y="340" text-anchor="middle" fill="#58a6ff" font-family="system-ui, -apple-system, sans-serif" font-size="28" font-weight="600">Write Markdown. Let AI Polish It.</text>
  <!-- Description -->
  <text x="600" y="400" text-anchor="middle" fill="#8b949e" font-family="system-ui, -apple-system, sans-serif" font-size="20">AI-Powered Markdown Editor with Live Preview</text>
  <!-- Providers -->
  <g transform="translate(340, 450)">
    <rect width="140" height="40" rx="8" fill="#238636" opacity="0.2" stroke="#238636" stroke-width="1"/>
    <text x="70" y="26" text-anchor="middle" fill="#3fb950" font-family="system-ui, sans-serif" font-size="16" font-weight="600">Ollama</text>
  </g>
  <g transform="translate(530, 450)">
    <rect width="140" height="40" rx="8" fill="#1f6feb" opacity="0.2" stroke="#1f6feb" stroke-width="1"/>
    <text x="70" y="26" text-anchor="middle" fill="#58a6ff" font-family="system-ui, sans-serif" font-size="16" font-weight="600">Gemini</text>
  </g>
  <g transform="translate(720, 450)">
    <rect width="140" height="40" rx="8" fill="#8957e5" opacity="0.2" stroke="#8957e5" stroke-width="1"/>
    <text x="70" y="26" text-anchor="middle" fill="#d2a8ff" font-family="system-ui, sans-serif" font-size="16" font-weight="600">OpenAI</text>
  </g>
  <!-- URL -->
  <text x="600" y="560" text-anchor="middle" fill="#484f58" font-family="system-ui, sans-serif" font-size="18">stale-ai.vercel.app</text>
</svg>
